PathFileType	4	(x/y/z)	S01_M20_T03.trc
DataRate	CameraRate	NumFrames	NumMarkers	Units	OrigDataRate	OrigDataStartFrame	OrigNumFrames
240	240	9	51	mm	240	123	488
Frame#	Time	Sternum			R.Acromium			L.Acromium			Top.Head			R.ASIS			L.ASIS			R.PSIS			L.PSIS			R.Great.Tro			L.Great.Tro			R.Iliac.Crest			L.Iliac.Crest			V.Sacral			R.Thigh.Upper.Post			R.Thigh.Lower.Ant			R.Thigh.Lower.Post			R.Thigh.Upper.Ant			R.Knee.Lat			R.Knee.Med			R.Shank.Upper.Post			R.Shank.Lower.Ant			R.Shank.Lower.Post			R.Shank.Upper.Ant			R.Ankle.Lat			R.Ankle.Med			R.Heel.Upper			R.Heel.Med			R.Heel.Lat			R.Toe.Lat			R.Toe.Med			R.Toe.Tip			L.Thigh.Upper.Post			L.Thigh.Lower.Ant			L.Thigh.Lower.Post			L.Thigh.Upper.Ant			L.Knee.Lat			L.Knee.Med			L.Shank.Upper.Post			L.Shank.Lower.Ant			L.Shank.Lower.Post			L.Shank.Upper.Ant			L.Ankle.Lat			L.Ankle.Med			L.Heel.Upper			L.Heel.Med			L.Heel.Lat			L.Toe.Lat			L.Toe.Med			L.Toe.Tip			Cervical.Spine			Back			
		X1	Y1	Z1	X2	Y2	Z2	X3	Y3	Z3	X4	Y4	Z4	X5	Y5	Z5	X6	Y6	Z6	X7	Y7	Z7	X8	Y8	Z8	X9	Y9	Z9	X10	Y10	Z10	X11	Y11	Z11	X12	Y12	Z12	X13	Y13	Z13	X14	Y14	Z14	X15	Y15	Z15	X16	Y16	Z16	X17	Y17	Z17	X18	Y18	Z18	X19	Y19	Z19	X20	Y20	Z20	X21	Y21	Z21	X22	Y22	Z22	X23	Y23	Z23	X24	Y24	Z24	X25	Y25	Z25	X26	Y26	Z26	X27	Y27	Z27	X28	Y28	Z28	X29	Y29	Z29	X30	Y30	Z30	X31	Y31	Z31	X32	Y32	Z32	X33	Y33	Z33	X34	Y34	Z34	X35	Y35	Z35	X36	Y36	Z36	X37	Y37	Z37	X38	Y38	Z38	X39	Y39	Z39	X40	Y40	Z40	X41	Y41	Z41	X42	Y42	Z42	X43	Y43	Z43	X44	Y44	Z44	X45	Y45	Z45	X46	Y46	Z46	X47	Y47	Z47	X48	Y48	Z48	X49	Y49	Z49	X50	Y50	Z50	X51	Y51	Z51	

123	0.50833	-754.23	1250.6	271.27	-864.59	1496.3	452.25	-901.02	1513.1	123.48	-919.74	1821.3	291.72	-783.36	995.18	423.11	-802.17	994.15	155.3	-1027.5	1036.1	354.32	-1040.5	1043.4	252.63	-848.98	947.05	515.06	-926.73	957.66	89.8	-869.88	1092.9	496.62	-922.22	1075.4	91.93	-1050.1	1005	300.64	-734.47	665.6	491.59	-641.8	636.64	455.05	-691.46	590.03	467.25	-682.6	715.03	476.81	-645.62	548.75	461.95	-643.11	547.46	316.82	-629.32	379.31	483.73	-536.18	332.51	446.77	-601.63	314.77	473.33	-568.48	396.81	462.8	-503.49	130.09	439.89	-472.49	156.91	350.47	-539.01	65.783	375.65	-505.78	52.456	349.12	-515.41	46.318	413.01	-358.5	142.03	487.46	-325.97	168.87	367.84	-292.24	220.79	426.91	-1039.4	705.41	124.56	-977.9	611.46	119.04	-1054.8	616.46	141.04	-972.99	705.64	99.092	-1039.5	519.29	129.26	-1003.9	512.5	269.78	-1139.7	401.18	121.79	-1108.7	296.96	145.42	-1164.4	327.01	128.03	-1083.9	369.25	134.13	-1242.7	124.42	176.48	-1212.9	132.29	272.78	-1318.6	102.71	224.8	-1309.8	75.197	256.72	-1313.4	77.179	194.57	-1105.9	38.874	157.37	-1081.5	43.925	278.73	-1017.1	47.526	229.12	-973.72	1559.2	297.96	-1052.9	1249	317.28
124	0.5125	-748.56	1249.6	271.97	-858.84	1495.2	453.44	-895.46	1512.3	124.69	-914.2	1820.3	293.34	-777.25	994.21	423.44	-796.69	993.18	155.54	-1021.6	1035.1	355.06	-1034.9	1042.5	253.4	-842.72	946.13	515.4	-921.4	956.87	90.303	-863.89	1091.6	497.26	-916.92	1074.6	92.501	-1044.3	1004.1	301.42	-728.16	664.73	491.68	-635.61	635.64	454.97	-685.3	589.1	467.32	-676.27	714.09	476.77	-639.55	547.64	461.84	-637.36	546.31	316.83	-624.22	378.18	483.73	-531.62	330.63	446.36	-597.05	313.42	473.3	-563.37	395.18	462.42	-500.51	128.12	439.69	-469.76	154.42	350.04	-536.78	64.033	375.78	-503.78	50.352	349.17	-513.18	44.516	413.13	-355.33	139.24	486.57	-323.14	165.52	366.74	-288.8	217.37	425.53	-1034.7	705.1	125.01	-973.48	611	119.19	-1050.3	616.19	141.43	-968.25	705.15	99.388	-1035.4	519	129.38	-999.45	511.89	269.86	-1136.4	401.7	121.9	-1106.3	297.2	145.4	-1161.8	327.72	128.1	-1080.9	369.28	134.19	-1241.9	125.61	176.41	-1211.8	133.38	272.67	-1318	104.65	224.76	-1309.3	77.125	256.74	-1312.8	78.948	194.59	-1105.9	38.892	157.41	-1081.4	43.927	278.8	-1017	47.311	229.11	-968.09	1558.3	299.27	-1047.2	1247.9	318.19
125	0.51667	-742.85	1248.7	272.7	-853.07	1494	454.65	-889.85	1511.5	125.92	-908.65	1819.4	294.99	-771.08	993.29	423.77	-791.16	992.26	155.8	-1015.6	1034.1	355.81	-1029.2	1041.6	254.18	-836.39	945.21	515.74	-916	956.12	90.825	-857.84	1090.4	497.91	-911.56	1073.8	93.088	-1038.5	1003.2	302.22	-721.93	663.82	491.77	-629.5	634.55	454.93	-679.24	588.1	467.39	-670	713.08	476.77	-633.57	546.47	461.73	-631.68	545.12	316.84	-619.23	377	483.72	-527.18	328.7	445.95	-592.6	312.02	473.26	-558.37	393.5	462.04	-497.69	126.12	439.49	-467.16	151.87	349.62	-534.74	62.343	375.9	-502	48.274	349.21	-511.15	42.75	413.24	-352.33	136.32	485.7	-320.45	162.05	365.67	-285.47	213.79	424.19	-1029.9	704.8	125.47	-968.96	610.56	119.33	-1045.7	615.92	141.83	-963.43	704.7	99.687	-1031.1	518.73	129.5	-994.88	511.29	269.93	-1133	402.25	122.01	-1103.8	297.48	145.37	-1159.1	328.49	128.16	-1077.8	369.34	134.23	-1241	126.88	176.32	-1210.7	134.54	272.55	-1317.3	106.7	224.7	-1308.7	79.168	256.73	-1312.3	80.823	194.59	-1105.8	38.912	157.45	-1081.2	43.937	278.86	-1016.8	47.097	229.1	-962.45	1557.3	300.61	-1041.5	1246.9	319.12
126	0.52083	-737.08	1247.8	273.44	-847.29	1492.9	455.89	-884.21	1510.8	127.18	-903.07	1818.5	296.65	-764.85	992.41	424.11	-785.56	991.38	156.06	-1009.6	1033.2	356.57	-1023.4	1040.7	254.98	-830	944.31	516.09	-910.54	955.4	91.366	-851.72	1089.2	498.58	-906.14	1073	93.692	-1032.6	1002.3	303.03	-715.78	662.85	491.85	-623.47	633.38	454.93	-673.29	587.03	467.45	-663.78	712.01	476.8	-627.67	545.26	461.63	-626.09	543.88	316.85	-614.36	375.78	483.68	-522.86	326.73	445.54	-588.27	310.59	473.19	-553.49	391.78	461.67	-494.99	124.11	439.29	-464.67	149.3	349.2	-532.87	60.737	376	-500.4	46.248	349.24	-509.31	41.046	413.34	-349.49	133.28	484.85	-317.88	158.47	364.64	-282.24	210.06	422.9	-1025	704.52	125.94	-964.36	610.14	119.45	-1041.1	615.67	142.23	-958.53	704.26	99.99	-1026.8	518.47	129.61	-990.17	510.7	269.99	-1129.6	402.85	122.1	-1101.3	297.8	145.32	-1156.3	329.31	128.21	-1074.7	369.43	134.25	-1240	128.23	176.21	-1209.5	135.76	272.4	-1316.5	108.85	224.62	-1308	81.329	256.72	-1311.7	82.809	194.58	-1105.8	38.936	157.47	-1081	43.955	278.92	-1016.7	46.886	229.08	-956.8	1556.4	301.98	-1035.7	1246	320.05
127	0.525	-731.28	1247	274.21	-841.49	1491.8	457.16	-878.54	1510.2	128.45	-897.47	1817.7	298.33	-758.55	991.58	424.46	-779.91	990.56	156.34	-1003.5	1032.3	357.36	-1017.6	1039.9	255.79	-823.54	943.42	516.43	-905.01	954.72	91.926	-845.54	1088.1	499.27	-900.67	1072.3	94.314	-1026.7	1001.4	303.87	-709.72	661.85	491.93	-617.53	632.13	454.96	-667.46	585.91	467.52	-657.62	710.86	476.87	-621.87	544	461.52	-620.6	542.61	316.86	-609.61	374.53	483.63	-518.64	324.72	445.14	-584.06	309.12	473.1	-548.7	390.03	461.3	-492.41	122.11	439.09	-462.25	146.7	348.79	-531.14	59.242	376.09	-498.95	44.298	349.26	-507.64	39.427	413.42	-346.78	130.14	484.04	-315.42	154.79	363.66	-279.09	206.18	421.68	-1020	704.24	126.43	-959.67	609.74	119.57	-1036.3	615.43	142.64	-953.56	703.86	100.3	-1022.3	518.23	129.71	-985.33	510.1	270.03	-1126	403.49	122.2	-1098.7	298.17	145.25	-1153.4	330.18	128.26	-1071.4	369.56	134.26	-1239	129.65	176.09	-1208.3	137.03	272.23	-1315.7	111.11	224.52	-1307.3	83.61	256.69	-1311	84.909	194.56	-1105.7	38.966	157.5	-1080.8	43.98	278.99	-1016.5	46.674	229.06	-951.14	1555.6	303.37	-1029.9	1245	321.01
128	0.52917	-725.43	1246.3	274.99	-835.68	1490.8	458.45	-872.83	1509.5	129.75	-891.84	1816.9	300.04	-752.2	990.8	424.81	-774.19	989.8	156.64	-997.39	1031.5	358.16	-1011.7	1039.1	256.63	-817.02	942.54	516.79	-899.4	954.06	92.505	-839.27	1087	499.97	-895.13	1071.7	94.955	-1020.7	1000.6	304.72	-703.76	660.8	492	-611.67	630.81	455.02	-661.75	584.74	467.57	-651.52	709.65	476.99	-616.17	542.71	461.42	-615.21	541.3	316.87	-604.96	373.26	483.56	-514.52	322.7	444.75	-579.95	307.63	472.98	-544.02	388.26	460.95	-489.91	120.14	438.89	-459.89	144.11	348.4	-529.52	57.885	376.15	-497.65	42.451	349.27	-506.13	37.918	413.49	-344.19	126.91	483.27	-313.03	151.04	362.73	-275.99	202.16	420.54	-1015	703.98	126.94	-954.88	609.37	119.67	-1031.4	615.19	143.06	-948.5	703.48	100.61	-1017.7	518	129.81	-980.35	509.51	270.05	-1122.3	404.17	122.28	-1096	298.58	145.16	-1150.4	331.1	128.3	-1068.1	369.72	134.24	-1237.9	131.14	175.95	-1206.9	138.37	272.04	-1314.7	113.49	224.41	-1306.6	86.015	256.65	-1310.3	87.127	194.53	-1105.6	39.001	157.51	-1080.7	44.013	279.05	-1016.4	46.461	229.04	-945.47	1554.7	304.78	-1024	1244.1	321.97
129	0.53333	-719.54	1245.6	275.79	-829.86	1489.8	459.76	-867.09	1508.9	131.07	-886.2	1816.1	301.76	-745.8	990.07	425.17	-768.42	989.09	156.94	-991.18	1030.7	358.99	-1005.8	1038.4	257.48	-810.44	941.69	517.15	-893.71	953.44	93.103	-832.93	1086	500.68	-889.53	1071.1	95.614	-1014.6	999.85	305.6	-697.89	659.73	492.07	-605.91	629.43	455.11	-656.15	583.53	467.62	-645.49	708.39	477.13	-610.58	541.39	461.32	-609.92	539.98	316.89	-600.41	371.96	483.46	-510.49	320.68	444.37	-575.94	306.13	472.85	-539.43	386.48	460.61	-487.48	118.21	438.71	-457.55	141.55	348.02	-528	56.69	376.2	-496.46	40.73	349.26	-504.74	36.541	413.53	-341.7	123.61	482.55	-310.7	147.23	361.88	-272.92	198.02	419.49	-1009.8	703.73	127.46	-949.98	609.01	119.76	-1026.4	614.96	143.48	-943.36	703.12	100.92	-1013	517.78	129.9	-975.21	508.92	270.05	-1118.5	404.88	122.36	-1093.2	299.02	145.05	-1147.3	332.08	128.34	-1064.6	369.91	134.21	-1236.7	132.71	175.79	-1205.4	139.77	271.84	-1313.7	115.99	224.28	-1305.7	88.545	256.6	-1309.5	89.468	194.49	-1105.5	39.043	157.52	-1080.5	44.053	279.11	-1016.2	46.245	229.02	-939.79	1553.9	306.22	-1018.1	1243.2	322.95
130	0.5375	-713.6	1245	276.61	-824.02	1488.9	461.1	-861.32	1508.4	132.41	-880.54	1815.4	303.49	-739.35	989.39	425.54	-762.58	988.44	157.27	-984.93	1029.9	359.83	-999.73	1037.6	258.35	-803.8	940.86	517.52	-887.95	952.85	93.719	-826.51	1085	501.41	-883.86	1070.5	96.292	-1008.5	999.1	306.5	-692.11	658.64	492.13	-600.24	628	455.23	-650.67	582.29	467.67	-639.53	707.1	477.32	-605.08	540.05	461.24	-604.74	538.65	316.92	-595.94	370.66	483.36	-506.52	318.68	444.01	-571.99	304.63	472.71	-534.93	384.71	460.29	-485.09	116.35	438.52	-455.22	139.02	347.66	-526.55	55.677	376.23	-495.38	39.156	349.24	-503.46	35.315	413.56	-339.31	120.24	481.88	-308.4	143.37	361.1	-269.86	193.76	418.55	-1004.6	703.47	128	-944.97	608.66	119.84	-1021.3	614.73	143.92	-938.12	702.79	101.24	-1008.2	517.56	129.98	-969.92	508.32	270.04	-1114.6	405.63	122.44	-1090.2	299.51	144.93	-1144.1	333.1	128.36	-1061	370.13	134.16	-1235.4	134.36	175.61	-1203.9	141.23	271.62	-1312.5	118.62	224.15	-1304.8	91.205	256.54	-1308.6	91.936	194.45	-1105.4	39.094	157.52	-1080.3	44.101	279.18	-1016.1	46.026	228.99	-934.09	1553.2	307.68	-1012.1	1242.3	323.95
131	0.54167	-707.62	1244.5	277.44	-818.16	1488	462.46	-855.52	1507.9	133.77	-874.86	1814.8	305.25	-732.85	988.77	425.91	-756.68	987.86	157.61	-978.62	1029.2	360.69	-993.66	1037	259.24	-797.1	940.06	517.9	-882.1	952.29	94.352	-820.01	1084.1	502.16	-878.13	1070	96.987	-1002.2	998.39	307.42	-686.43	657.55	492.19	-594.66	626.54	455.39	-645.3	581.03	467.72	-633.63	705.78	477.55	-599.68	538.72	461.18	-599.66	537.34	316.96	-591.56	369.38	483.24	-502.61	316.71	443.67	-568.12	303.15	472.55	-530.49	382.96	459.99	-482.74	114.56	438.36	-452.88	136.56	347.33	-525.16	54.863	376.24	-494.37	37.748	349.2	-502.28	34.256	413.57	-336.98	116.82	481.26	-306.12	139.48	360.4	-266.8	189.39	417.72	-999.23	703.22	128.55	-939.84	608.32	119.91	-1016.1	614.49	144.36	-932.78	702.47	101.57	-1003.3	517.34	130.05	-964.46	507.71	270	-1110.5	406.42	122.5	-1087.2	300.03	144.79	-1140.7	334.18	128.39	-1057.3	370.38	134.1	-1234	136.08	175.42	-1202.2	142.75	271.38	-1311.2	121.36	224	-1303.7	93.997	256.47	-1307.6	94.535	194.41	-1105.3	39.152	157.51	-1080.1	44.155	279.24	-1015.9	45.801	228.97	-928.39	1552.4	309.17	-1006.1	1241.5	324.96
